<?xml version="1.0" encoding="utf-8"?>
<!-- Generator: Adobe Illustrator 16.0.0, SVG Export Plug-In . SVG Version: 6.00 Build 0)  -->
<!DOCTYPE svg PUBLIC "-//W3C//DTD SVG 1.1//EN" "http://www.w3.org/Graphics/SVG/1.1/DTD/svg11.dtd">
<svg version="1.1" id="Layer_1" xmlns="http://www.w3.org/2000/svg" xmlns:xlink="http://www.w3.org/1999/xlink" x="0px" y="0px"
	 width="512px" height="512px" viewBox="0 0 512 512" enable-background="new 0 0 512 512" xml:space="preserve">
<g>
	<g>
		<path fill="#FFFFFF" d="M350.803,255.021c-2.216-2.016-4.274-4.203-6.386-6.333c-0.377-0.38-0.959-0.811-0.977-1.241
			c-0.142-2.921-2.795-3.71-4.299-5.655c-0.57,0.568-0.99,0.916-1.317,1.333c-0.76,0.962-1.367,0.817-2.148-0.046
			c-4.556-5.046-8.523-10.49-11.759-16.491c-3.072-5.706-4.626-11.935-6.439-18.068c-2.381-8.043-5.402-15.819-10.629-22.428
			c-0.245-0.31-0.493-0.619-0.741-0.927c-3.132,4.261-6.443,8.38-10.056,12.254c-7.316,7.842-14.792,15.546-22.482,23.016
			c-4.59,4.458-9.593,8.521-14.639,12.465c-0.016,0.014-0.034,0.026-0.052,0.04c8.165,6.365,17.742,9.809,27.623,12.363
			c11.551,2.99,21.357,8.94,30.084,16.888c0.337,0.31,0.601,0.699,0.94,1.098c-0.742,0.831-1.403,1.571-2.09,2.339
			c1.479,1.481,2.645,3.439,4.311,4.067c1.435,0.541,2.442,1.28,3.432,2.241c1.891,1.838,3.781,3.681,5.586,5.605
			c0.849,0.903,1.513,0.89,2.433,0.156c1.348-1.079,2.775-2.063,4.17-3.089c4.24-4.24,8.48-8.48,12.721-12.721
			c0.953-1.296,1.845-2.645,2.871-3.876C351.884,256.899,351.985,256.097,350.803,255.021z"/>
		<path fill="#FFFFFF" d="M290.295,193.102c3.612-3.875,6.924-7.995,10.056-12.255c2.613-3.559,5.101-7.215,7.524-10.913
			c3.337-5.086,7.583-9.211,12.804-12.39c6.878-4.187,13.518-8.706,18.512-15.199c3.343-4.348,6.492-8.818,6.707-14.584
			c0.146-3.938-0.646-7.505-3.665-10.466c-8.514-8.357-16.952-16.796-25.31-25.311c-2.957-3.014-6.517-3.815-10.457-3.676
			c-5.77,0.206-10.236,3.348-14.596,6.677c-6.22,4.747-10.669,11.007-14.63,17.594c-3.637,6.047-8.41,10.817-14.293,14.646
			c-3.361,2.188-6.63,4.481-9.825,6.864c-11.558,8.614-22.094,18.433-31.953,29.001c-5.322,5.707-10.414,11.65-15.276,17.757
			c-0.248,0.31-0.496,0.617-0.741,0.927c-5.224,6.61-8.248,14.385-10.628,22.429c-1.814,6.132-3.367,12.362-6.443,18.067
			c-3.229,6.002-7.2,11.446-11.756,16.492c-0.781,0.864-1.388,1.009-2.147,0.045c-0.328-0.417-0.748-0.762-1.317-1.333
			c-1.504,1.944-4.158,2.734-4.299,5.657c-0.019,0.431-0.604,0.861-0.978,1.239c-2.111,2.131-4.169,4.315-6.385,6.333
			c-1.183,1.077-1.082,1.88-0.156,2.99c1.026,1.233,1.918,2.581,2.871,3.877c4.241,4.24,8.481,8.481,12.721,12.722
			c1.394,1.022,2.822,2.007,4.173,3.085c0.916,0.735,1.581,0.747,2.43-0.153c1.805-1.924,3.695-3.767,5.588-5.605
			c0.986-0.96,1.998-1.702,3.428-2.241c1.667-0.628,2.831-2.589,4.311-4.068c-0.687-0.77-1.345-1.508-2.089-2.339
			c0.34-0.4,0.604-0.786,0.943-1.096c8.723-7.947,18.53-13.897,30.081-16.888c9.881-2.559,19.458-6,27.624-12.364
			c0.018-0.014,0.033-0.025,0.052-0.04c5.046-3.944,10.049-8.007,14.639-12.465C275.503,208.646,282.979,200.943,290.295,193.102z"
			/>
		<circle fill="#FFFFFF" cx="313.65" cy="60.426" r="22.166"/>
	</g>
	<text transform="matrix(1 0 0 1 66.6597 410.2168)" fill="#FFFFFF" font-family="'Flama-Bold'" font-size="77">PLOG RUN</text>
	<text transform="matrix(1 0 0 1 30.3589 466.8096)" fill="#FFFFFF" font-family="'Flama-Bold'" font-size="35" letter-spacing="1">A GO NATIVE INITIATIVE</text>
	<text transform="matrix(1 0 0 1 100.7368 339.9902)" fill="#FFFFFF" font-family="'Flama'" font-size="55">BENGALURU</text>
</g>
<rect fill="none" width="512" height="512"/>
</svg>
