<?xml version="1.0" encoding="utf-8"?>
<!-- Generator: Adobe Illustrator 16.0.0, SVG Export Plug-In . SVG Version: 6.00 Build 0)  -->
<!DOCTYPE svg PUBLIC "-//W3C//DTD SVG 1.1//EN" "http://www.w3.org/Graphics/SVG/1.1/DTD/svg11.dtd">
<svg version="1.1" id="Layer_1" xmlns="http://www.w3.org/2000/svg" xmlns:xlink="http://www.w3.org/1999/xlink" x="0px" y="0px"
	 width="360px" height="210px" viewBox="0 0 210 210" enable-background="new 0 0 210 210" xml:space="preserve">
<text transform="matrix(1 0 0 1 -20.0142 204.7754)" fill="#FFFFFF" font-family="'Flama-Bold'" font-size="17.768">A GO NATIVE INITIATIVE</text>
<text transform="matrix(1 0 0 1 16.0156 174.5449)" fill="#FFFFFF" font-family="'Flama-Bold'" font-size="36.768">PLOG RUN</text>
<text transform="matrix(1 0 0 1 33.0142 144.7754)" fill="#FFFFFF" font-family="'Flama'" font-size="25" letter-spacing="1">BENGALURU</text>
<g>
	<path fill="#FFFFFF" d="M137.736,109.447c-0.904-0.822-1.744-1.715-2.604-2.583c-0.153-0.155-0.392-0.331-0.399-0.506
		c-0.057-1.192-1.14-1.514-1.754-2.308c-0.231,0.232-0.402,0.374-0.537,0.543c-0.31,0.393-0.557,0.334-0.876-0.019
		c-1.86-2.058-3.478-4.279-4.798-6.727c-1.254-2.329-1.888-4.87-2.628-7.373c-0.97-3.281-2.204-6.454-4.336-9.15
		c-0.101-0.126-0.201-0.252-0.302-0.378c-1.277,1.739-2.629,3.419-4.104,5c-2.984,3.2-6.035,6.343-9.173,9.391
		c-1.871,1.819-3.913,3.476-5.971,5.085c-0.007,0.006-0.015,0.011-0.021,0.017c3.331,2.597,7.239,4.001,11.27,5.044
		c4.712,1.22,8.714,3.647,12.272,6.89c0.138,0.126,0.246,0.285,0.385,0.447c-0.303,0.339-0.572,0.641-0.854,0.955
		c0.605,0.604,1.08,1.402,1.76,1.658c0.584,0.221,0.996,0.523,1.399,0.915c0.771,0.75,1.544,1.502,2.279,2.286
		c0.347,0.369,0.617,0.363,0.992,0.064c0.55-0.44,1.132-0.842,1.702-1.26c1.73-1.729,3.461-3.46,5.189-5.189
		c0.389-0.529,0.752-1.078,1.171-1.582C138.178,110.215,138.22,109.887,137.736,109.447z"/>
	<path fill="#FFFFFF" d="M113.05,84.186c1.475-1.581,2.825-3.261,4.103-5c1.066-1.452,2.081-2.944,3.07-4.453
		c1.361-2.075,3.094-3.758,5.225-5.055c2.805-1.708,5.515-3.552,7.551-6.201c1.364-1.774,2.649-3.598,2.737-5.95
		c0.06-1.606-0.264-3.062-1.495-4.27c-3.474-3.41-6.917-6.853-10.326-10.327c-1.207-1.229-2.659-1.556-4.267-1.5
		c-2.354,0.084-4.176,1.366-5.955,2.724c-2.536,1.937-4.352,4.49-5.968,7.178c-1.484,2.467-3.432,4.414-5.832,5.976
		c-1.371,0.892-2.705,1.829-4.009,2.801c-4.715,3.514-9.014,7.52-13.036,11.832c-2.172,2.328-4.249,4.753-6.233,7.245
		c-0.101,0.126-0.202,0.251-0.303,0.378c-2.131,2.696-3.365,5.868-4.336,9.149c-0.741,2.503-1.374,5.043-2.628,7.372
		c-1.319,2.448-2.938,4.669-4.797,6.728c-0.319,0.353-0.567,0.411-0.876,0.019c-0.134-0.17-0.305-0.311-0.537-0.543
		c-0.614,0.793-1.697,1.116-1.753,2.308c-0.008,0.175-0.247,0.352-0.399,0.506c-0.861,0.869-1.701,1.761-2.605,2.583
		c-0.482,0.439-0.441,0.768-0.063,1.221c0.418,0.503,0.782,1.053,1.17,1.582c1.73,1.73,3.46,3.46,5.19,5.189
		c0.569,0.418,1.152,0.819,1.703,1.26c0.375,0.299,0.646,0.305,0.992-0.064c0.736-0.783,1.508-1.535,2.279-2.285
		c0.403-0.393,0.815-0.695,1.399-0.914c0.68-0.257,1.155-1.057,1.759-1.66c-0.28-0.314-0.549-0.615-0.853-0.955
		c0.139-0.162,0.247-0.321,0.384-0.447c3.559-3.242,7.561-5.67,12.272-6.89c4.032-1.043,7.94-2.448,11.271-5.044
		c0.007-0.005,0.014-0.011,0.021-0.017c2.059-1.609,4.1-3.266,5.972-5.084C107.015,90.528,110.065,87.384,113.05,84.186z"/>
	<circle fill="#FFFFFF" cx="122.578" cy="30.056" r="9.044"/>
</g>
</svg>
