<?xml version="1.0" encoding="utf-8"?>
<!-- Generator: Adobe Illustrator 16.0.0, SVG Export Plug-In . SVG Version: 6.00 Build 0)  -->
<!DOCTYPE svg PUBLIC "-//W3C//DTD SVG 1.1//EN" "http://www.w3.org/Graphics/SVG/1.1/DTD/svg11.dtd">
<svg version="1.1" id="Layer_1" xmlns="http://www.w3.org/2000/svg" xmlns:xlink="http://www.w3.org/1999/xlink" x="0px" y="0px"
	 width="56px" height="56px" viewBox="0 0 210 210" enable-background="new 0 0 210 210" xml:space="preserve">
<g>
	<path fill="#FF591F" d="M165.436,166.69c-1.411-1.284-2.725-2.679-4.069-4.036c-0.239-0.24-0.611-0.518-0.624-0.789
		c-0.089-1.863-1.78-2.369-2.738-3.607c-0.364,0.363-0.632,0.584-0.841,0.85c-0.484,0.613-0.87,0.521-1.369-0.03
		c-2.905-3.216-5.435-6.685-7.495-10.512c-1.96-3.638-2.951-7.608-4.107-11.519c-1.516-5.127-3.444-10.083-6.775-14.295
		c-0.156-0.199-0.314-0.396-0.472-0.594c-1.996,2.719-4.107,5.344-6.411,7.813c-4.662,4.999-9.43,9.909-14.333,14.672
		c-2.924,2.841-6.113,5.431-9.33,7.945c-0.011,0.008-0.022,0.017-0.034,0.026c5.205,4.057,11.312,6.252,17.611,7.881
		c7.361,1.906,13.614,5.699,19.176,10.766c0.215,0.197,0.384,0.444,0.6,0.699c-0.473,0.529-0.895,1.002-1.332,1.49
		c0.944,0.945,1.687,2.193,2.749,2.594c0.913,0.344,1.556,0.816,2.186,1.428c1.206,1.174,2.413,2.348,3.562,3.574
		c0.54,0.574,0.964,0.566,1.55,0.1c0.859-0.689,1.77-1.315,2.659-1.969c2.703-2.701,5.407-5.406,8.109-8.109
		c0.606-0.826,1.175-1.686,1.829-2.472C166.125,167.889,166.19,167.377,165.436,166.69z"/>
	<path fill="#FF591F" d="M126.863,127.219c2.304-2.47,4.415-5.098,6.41-7.812c1.668-2.27,3.252-4.599,4.798-6.957
		c2.126-3.242,4.834-5.872,8.162-7.897c4.384-2.669,8.617-5.55,11.8-9.689c2.131-2.771,4.139-5.621,4.275-9.297
		c0.095-2.509-0.411-4.784-2.335-6.671c-5.428-5.328-10.808-10.707-16.135-16.135c-1.886-1.922-4.155-2.432-6.667-2.342
		c-3.678,0.13-6.524,2.133-9.305,4.255c-3.964,3.026-6.8,7.017-9.325,11.216c-2.319,3.854-5.362,6.896-9.111,9.336
		c-2.143,1.394-4.227,2.857-6.264,4.376c-7.368,5.491-14.084,11.75-20.369,18.488c-3.393,3.637-6.639,7.427-9.739,11.318
		c-0.157,0.197-0.316,0.395-0.472,0.59c-3.332,4.215-5.258,9.171-6.775,14.299c-1.157,3.91-2.147,7.88-4.107,11.52
		c-2.06,3.824-4.589,7.295-7.495,10.51c-0.499,0.553-0.884,0.645-1.369,0.03c-0.209-0.266-0.477-0.485-0.84-0.851
		c-0.959,1.241-2.651,1.744-2.739,3.607c-0.013,0.273-0.385,0.549-0.624,0.79c-1.345,1.358-2.658,2.751-4.07,4.038
		c-0.754,0.686-0.689,1.197-0.1,1.906c0.655,0.785,1.223,1.645,1.83,2.471c2.703,2.703,5.406,5.406,8.109,8.109
		c0.889,0.654,1.799,1.28,2.66,1.968c0.585,0.468,1.009,0.477,1.549-0.101c1.15-1.225,2.356-2.399,3.562-3.572
		c0.63-0.612,1.273-1.084,2.187-1.428c1.062-0.4,1.804-1.649,2.748-2.594c-0.437-0.49-0.857-0.961-1.331-1.492
		c0.216-0.254,0.385-0.501,0.6-0.697c5.561-5.066,11.814-8.859,19.176-10.765c6.3-1.632,12.406-3.827,17.611-7.884
		c0.011-0.008,0.022-0.016,0.033-0.025c3.217-2.514,6.406-5.104,9.331-7.943C117.434,137.128,122.2,132.217,126.863,127.219z"/>
	<circle fill="#FF591F" cx="141.753" cy="42.641" r="14.131"/>
</g>
</svg>
