<?xml version="1.0" encoding="utf-8"?>
<!-- Generator: Adobe Illustrator 16.0.0, SVG Export Plug-In . SVG Version: 6.00 Build 0)  -->
<!DOCTYPE svg PUBLIC "-//W3C//DTD SVG 1.1//EN" "http://www.w3.org/Graphics/SVG/1.1/DTD/svg11.dtd">
<svg version="1.1" id="Layer_1" xmlns="http://www.w3.org/2000/svg" xmlns:xlink="http://www.w3.org/1999/xlink" x="0px" y="0px"
	 width="512px" height="512px" viewBox="0 0 210 210" enable-background="new 0 0 210 210" xml:space="preserve">
<g>
	<path fill="#FFFFFF" d="M155.707,166.849c-1.412-1.284-2.725-2.679-4.07-4.036c-0.238-0.24-0.611-0.518-0.623-0.789
		c-0.089-1.863-1.781-2.369-2.738-3.607c-0.365,0.363-0.632,0.584-0.842,0.85c-0.484,0.613-0.871,0.521-1.368-0.03
		c-2.905-3.216-5.437-6.685-7.495-10.512c-1.961-3.638-2.951-7.608-4.107-11.519c-1.518-5.127-3.444-10.083-6.775-14.295
		c-0.156-0.199-0.314-0.396-0.473-0.594c-1.996,2.717-4.107,5.344-6.41,7.812c-4.664,5-9.43,9.91-14.333,14.673
		c-2.925,2.841-6.114,5.431-9.331,7.945c-0.012,0.008-0.021,0.017-0.033,0.026c5.205,4.057,11.311,6.252,17.611,7.881
		c7.361,1.906,13.613,5.699,19.176,10.766c0.215,0.197,0.383,0.444,0.6,0.699c-0.475,0.529-0.895,1.002-1.332,1.49
		c0.943,0.945,1.686,2.193,2.748,2.594c0.913,0.345,1.555,0.816,2.187,1.428c1.206,1.174,2.411,2.348,3.562,3.574
		c0.54,0.574,0.965,0.566,1.549,0.1c0.861-0.689,1.771-1.315,2.66-1.969c2.703-2.701,5.408-5.406,8.109-8.109
		c0.605-0.826,1.175-1.686,1.83-2.472C156.396,168.047,156.461,167.535,155.707,166.849z"/>
	<path fill="#FFFFFF" d="M117.135,127.377c2.303-2.471,4.415-5.098,6.41-7.812c1.666-2.268,3.252-4.599,4.797-6.957
		c2.127-3.242,4.834-5.872,8.162-7.897c4.385-2.669,8.617-5.55,11.801-9.689c2.131-2.771,4.137-5.621,4.275-9.297
		c0.095-2.509-0.412-4.784-2.335-6.671c-5.429-5.328-10.808-10.707-16.136-16.135c-1.885-1.922-4.154-2.432-6.666-2.342
		c-3.678,0.13-6.525,2.133-9.305,4.256c-3.964,3.026-6.801,7.016-9.326,11.215c-2.318,3.854-5.361,6.896-9.111,9.336
		c-2.143,1.394-4.226,2.857-6.263,4.376c-7.368,5.491-14.084,11.75-20.369,18.488c-3.393,3.637-6.639,7.427-9.739,11.318
		c-0.157,0.197-0.316,0.394-0.472,0.59c-3.331,4.215-5.258,9.171-6.775,14.299c-1.156,3.91-2.147,7.88-4.107,11.52
		c-2.06,3.824-4.59,7.295-7.496,10.51c-0.498,0.553-0.884,0.645-1.369,0.03c-0.209-0.266-0.477-0.485-0.839-0.851
		c-0.959,1.241-2.651,1.744-2.74,3.607c-0.013,0.273-0.385,0.549-0.624,0.79c-1.346,1.358-2.658,2.751-4.07,4.038
		c-0.754,0.686-0.689,1.197-0.1,1.906c0.655,0.785,1.223,1.645,1.83,2.471c2.703,2.703,5.407,5.406,8.109,8.109
		c0.889,0.654,1.799,1.28,2.66,1.968c0.585,0.468,1.009,0.477,1.549-0.101c1.15-1.225,2.356-2.399,3.562-3.571
		c0.63-0.613,1.273-1.085,2.186-1.43c1.062-0.399,1.805-1.648,2.749-2.593c-0.438-0.49-0.858-0.961-1.332-1.492
		c0.216-0.254,0.385-0.501,0.601-0.697c5.561-5.066,11.814-8.859,19.176-10.765c6.3-1.63,12.406-3.827,17.61-7.884
		c0.011-0.008,0.022-0.016,0.033-0.025c3.216-2.514,6.407-5.104,9.33-7.943C107.705,137.286,112.471,132.375,117.135,127.377z"/>
	<circle fill="#FFFFFF" cx="132.023" cy="42.799" r="14.131"/>
</g>
</svg>
